<svg width="25" height="20" viewBox="0 0 25 20" fill="none" xmlns="http://www.w3.org/2000/svg">
<g clip-path="url(#clip0_1_38)">
<path d="M21.3737 2.61365H16.6008V1.83756C16.6008 0.980409 15.746 0.28537 14.6916 0.28537H9.9187C8.86436 0.28537 8.00951 0.980409 8.00951 1.83756V2.61365H3.23658V3.38974H4.2201L5.17561 18.1354C5.17561 18.9926 6.03046 19.6876 7.0848 19.6876H17.5853C18.6396 19.6876 19.4944 18.9926 19.4944 18.1354L20.4332 3.38974H21.3738V2.61365H21.3737ZM8.96411 1.83756C8.96411 1.40935 9.39297 1.06146 9.9187 1.06146H14.6916C15.2183 1.06146 15.6462 1.40935 15.6462 1.83756V2.61365H8.96411V1.83756ZM18.5417 18.0952L18.5398 18.1149V18.1354C18.5398 18.5629 18.1119 18.9115 17.5852 18.9115H7.08475C6.55902 18.9115 6.13016 18.5629 6.13016 18.1354V18.1149L6.12924 18.0945L5.17561 3.38974H19.4777L18.5417 18.0952Z" fill="#0962EA"/>
<path d="M12.7824 4.94189H11.8278V17.3593H12.7824V4.94189Z" fill="#0962EA"/>
<path d="M9.94013 17.3343L8.96319 4.94119L8.01047 4.99041L8.98746 17.3835L9.94013 17.3343Z" fill="#0962EA"/>
<path d="M16.6074 4.96615L15.6546 4.91767L14.6916 17.3351L15.6443 17.3835L16.6074 4.96615Z" fill="#0962EA"/>
</g>
<defs>
<clipPath id="clip0_1_38">
<rect width="24.6" height="20" fill="white"/>
</clipPath>
</defs>
</svg>
